<?xml version="1.0" encoding="utf-8"?>
<!-- Generator: Adobe Illustrator 27.5.0, SVG Export Plug-In . SVG Version: 6.00 Build 0)  -->
<svg version="1.1" xmlns="http://www.w3.org/2000/svg" xmlns:xlink="http://www.w3.org/1999/xlink" x="0px" y="0px"
	 viewBox="0 0 500 500" style="enable-background:new 0 0 500 500;" xml:space="preserve">
<g id="Background_Simple">
	<g>
		<path style="fill:#92E3A9;" d="M458.969,131.83C432.426,81.127,382.042,46,327.71,32.689
			C275.88,19.991,213.483,20.616,174.469,62.43c-25.689,27.532-35.976,65.863-58.648,95.593
			c-11.269,14.777-25.372,21.537-40.137,31.88c-35.985,25.21-62.451,65.776-56.651,111.658
			c9.697,76.712,79.673,117.911,150.001,122.538c92.938,6.115,159.219-6.313,215.522-42.293
			c29.242-18.687,58.406-40.862,76.257-71.554c26.996-46.415,25.887-104.947,8.424-154.785
			C466.363,147.27,462.923,139.383,458.969,131.83z"/>
		<path style="opacity:0.8;fill:#FFFFFF;" d="M458.969,131.83C432.426,81.127,382.042,46,327.71,32.689
			C275.88,19.991,213.483,20.616,174.469,62.43c-25.689,27.532-35.976,65.863-58.648,95.593
			c-11.269,14.777-25.372,21.537-40.137,31.88c-35.985,25.21-62.451,65.776-56.651,111.658
			c9.697,76.712,79.673,117.911,150.001,122.538c92.938,6.115,159.219-6.313,215.522-42.293
			c29.242-18.687,58.406-40.862,76.257-71.554c26.996-46.415,25.887-104.947,8.424-154.785
			C466.363,147.27,462.923,139.383,458.969,131.83z"/>
	</g>
</g>
<g id="Signs">
	<g>
		<g>
			<path style="fill:#92E3A9;stroke:#263238;stroke-linecap:round;stroke-linejoin:round;stroke-miterlimit:10;" d="M246.097,468.8
				h-9.546V53.341c0-2.636,2.137-4.773,4.773-4.773l0,0c2.636,0,4.773,2.137,4.773,4.773V468.8z"/>
		</g>
		
			<rect x="152.592" y="103.907" style="fill:#263238;stroke:#263238;stroke-linecap:round;stroke-linejoin:round;stroke-miterlimit:10;" width="83.69" height="29.468"/>
		
			<rect x="246.259" y="72.32" style="fill:#263238;stroke:#263238;stroke-linecap:round;stroke-linejoin:round;stroke-miterlimit:10;" width="83.69" height="29.468"/>
		<polygon style="fill:#263238;stroke:#263238;stroke-linecap:round;stroke-linejoin:round;stroke-miterlimit:10;" points="
			246.259,153.527 292.991,159.464 292.991,118.12 246.259,124.058 		"/>
		<polygon style="fill:#92E3A9;stroke:#263238;stroke-linecap:round;stroke-linejoin:round;stroke-miterlimit:10;" points="
			283.573,139.583 273.259,128.209 273.259,133.169 251.718,134.016 251.718,144.82 273.259,145.89 273.259,150.85 		"/>
		<polygon style="fill:#92E3A9;stroke:#263238;stroke-linecap:round;stroke-linejoin:round;stroke-miterlimit:10;" points="
			317.19,84.914 301.286,75.732 301.286,79.755 259.358,79.755 259.358,90.074 301.286,90.074 301.286,94.097 		"/>
		<polygon style="fill:#92E3A9;stroke:#263238;stroke-linecap:round;stroke-linejoin:round;stroke-miterlimit:10;" points="
			166.01,118.859 181.914,109.677 181.914,113.7 223.842,113.7 223.842,124.019 181.914,124.019 181.914,128.041 		"/>
	</g>
</g>
<g id="Graphics">
	<g>
		
			<circle style="fill:none;stroke:#263238;stroke-linecap:round;stroke-linejoin:round;stroke-miterlimit:10;" cx="371.343" cy="98.804" r="34.677"/>
		<path style="fill:none;stroke:#263238;stroke-linecap:round;stroke-linejoin:round;stroke-miterlimit:10;" d="M394.147,121.7
			c-2.313,2.304-4.974,4.26-7.896,5.782"/>
		<path style="fill:none;stroke:#263238;stroke-linecap:round;stroke-linejoin:round;stroke-miterlimit:10;" d="M381.629,129.448
			c-3.231,1.084-6.69,1.671-10.286,1.671c-17.847,0-32.315-14.468-32.315-32.315s14.468-32.315,32.315-32.315
			c17.847,0,32.315,14.468,32.315,32.315c0,6.036-1.655,11.686-4.536,16.52"/>
		
			<circle style="fill:#263238;stroke:#263238;stroke-linecap:round;stroke-linejoin:round;stroke-miterlimit:10;" cx="371.343" cy="98.804" r="2.559"/>
		<polyline style="fill:none;stroke:#263238;stroke-linecap:round;stroke-linejoin:round;stroke-miterlimit:10;" points="
			375.024,113.173 371.343,98.804 392.82,84.093 		"/>
	</g>
	<g>
		<polyline style="fill:none;stroke:#263238;stroke-linecap:round;stroke-linejoin:round;stroke-miterlimit:10;" points="
			143.448,188.775 143.448,240.014 105.288,240.014 		"/>
		<polyline style="fill:none;stroke:#263238;stroke-linecap:round;stroke-linejoin:round;stroke-miterlimit:10;" points="
			73.984,231.968 73.984,174.803 143.448,174.803 143.448,184.262 		"/>
		<polyline style="fill:none;stroke:#263238;stroke-linecap:round;stroke-linejoin:round;stroke-miterlimit:10;" points="
			99.808,240.014 73.984,240.014 73.984,235.837 		"/>
		<g>
			
				<rect x="78.207" y="190.854" style="fill:none;stroke:#263238;stroke-linecap:round;stroke-linejoin:round;stroke-miterlimit:10;" width="6.78" height="6.78"/>
			
				<rect x="87.247" y="190.854" style="fill:none;stroke:#263238;stroke-linecap:round;stroke-linejoin:round;stroke-miterlimit:10;" width="6.78" height="6.78"/>
			
				<rect x="96.286" y="190.854" style="fill:none;stroke:#263238;stroke-linecap:round;stroke-linejoin:round;stroke-miterlimit:10;" width="6.78" height="6.78"/>
			
				<rect x="105.326" y="190.854" style="fill:none;stroke:#263238;stroke-linecap:round;stroke-linejoin:round;stroke-miterlimit:10;" width="6.78" height="6.78"/>
			
				<rect x="114.366" y="190.854" style="fill:none;stroke:#263238;stroke-linecap:round;stroke-linejoin:round;stroke-miterlimit:10;" width="6.78" height="6.78"/>
			
				<rect x="123.406" y="190.854" style="fill:none;stroke:#263238;stroke-linecap:round;stroke-linejoin:round;stroke-miterlimit:10;" width="6.78" height="6.78"/>
			
				<rect x="132.446" y="190.854" style="fill:none;stroke:#263238;stroke-linecap:round;stroke-linejoin:round;stroke-miterlimit:10;" width="6.78" height="6.78"/>
		</g>
		<g>
			
				<rect x="78.207" y="201.554" style="fill:none;stroke:#263238;stroke-linecap:round;stroke-linejoin:round;stroke-miterlimit:10;" width="6.78" height="6.78"/>
			
				<rect x="87.247" y="201.554" style="fill:none;stroke:#263238;stroke-linecap:round;stroke-linejoin:round;stroke-miterlimit:10;" width="6.78" height="6.78"/>
			
				<rect x="96.286" y="201.554" style="fill:none;stroke:#263238;stroke-linecap:round;stroke-linejoin:round;stroke-miterlimit:10;" width="6.78" height="6.78"/>
			
				<rect x="105.326" y="201.554" style="fill:none;stroke:#263238;stroke-linecap:round;stroke-linejoin:round;stroke-miterlimit:10;" width="6.78" height="6.78"/>
			
				<rect x="114.366" y="201.554" style="fill:none;stroke:#263238;stroke-linecap:round;stroke-linejoin:round;stroke-miterlimit:10;" width="6.78" height="6.78"/>
			
				<rect x="123.406" y="201.554" style="fill:none;stroke:#263238;stroke-linecap:round;stroke-linejoin:round;stroke-miterlimit:10;" width="6.78" height="6.78"/>
			
				<rect x="132.446" y="201.554" style="fill:none;stroke:#263238;stroke-linecap:round;stroke-linejoin:round;stroke-miterlimit:10;" width="6.78" height="6.78"/>
		</g>
		<g>
			
				<rect x="78.207" y="212.254" style="fill:none;stroke:#263238;stroke-linecap:round;stroke-linejoin:round;stroke-miterlimit:10;" width="6.78" height="6.78"/>
			
				<rect x="87.247" y="212.254" style="fill:none;stroke:#263238;stroke-linecap:round;stroke-linejoin:round;stroke-miterlimit:10;" width="6.78" height="6.78"/>
			
				<rect x="96.286" y="212.254" style="fill:none;stroke:#263238;stroke-linecap:round;stroke-linejoin:round;stroke-miterlimit:10;" width="6.78" height="6.78"/>
			
				<rect x="105.326" y="212.254" style="fill:none;stroke:#263238;stroke-linecap:round;stroke-linejoin:round;stroke-miterlimit:10;" width="6.78" height="6.78"/>
			
				<rect x="114.366" y="212.254" style="fill:none;stroke:#263238;stroke-linecap:round;stroke-linejoin:round;stroke-miterlimit:10;" width="6.78" height="6.78"/>
			
				<rect x="123.406" y="212.254" style="fill:none;stroke:#263238;stroke-linecap:round;stroke-linejoin:round;stroke-miterlimit:10;" width="6.78" height="6.78"/>
			
				<rect x="132.446" y="212.254" style="fill:none;stroke:#263238;stroke-linecap:round;stroke-linejoin:round;stroke-miterlimit:10;" width="6.78" height="6.78"/>
		</g>
		<g>
			
				<rect x="78.207" y="222.953" style="fill:none;stroke:#263238;stroke-linecap:round;stroke-linejoin:round;stroke-miterlimit:10;" width="6.78" height="6.78"/>
			
				<rect x="87.247" y="222.953" style="fill:none;stroke:#263238;stroke-linecap:round;stroke-linejoin:round;stroke-miterlimit:10;" width="6.78" height="6.78"/>
			
				<rect x="96.286" y="222.953" style="fill:none;stroke:#263238;stroke-linecap:round;stroke-linejoin:round;stroke-miterlimit:10;" width="6.78" height="6.78"/>
			
				<rect x="105.326" y="222.953" style="fill:none;stroke:#263238;stroke-linecap:round;stroke-linejoin:round;stroke-miterlimit:10;" width="6.78" height="6.78"/>
			
				<rect x="114.366" y="222.953" style="fill:none;stroke:#263238;stroke-linecap:round;stroke-linejoin:round;stroke-miterlimit:10;" width="6.78" height="6.78"/>
			
				<rect x="123.406" y="222.953" style="fill:none;stroke:#263238;stroke-linecap:round;stroke-linejoin:round;stroke-miterlimit:10;" width="6.78" height="6.78"/>
			
				<rect x="132.446" y="222.953" style="fill:none;stroke:#263238;stroke-linecap:round;stroke-linejoin:round;stroke-miterlimit:10;" width="6.78" height="6.78"/>
		</g>
		<path style="fill:#263238;stroke:#263238;stroke-linecap:round;stroke-linejoin:round;stroke-miterlimit:10;" d="M86.272,179.406
			H83.28v-10.973h2.993V179.406z M98.243,168.433H95.25v10.973h2.993V168.433z M110.213,168.433h-2.993v10.973h2.993V168.433z
			 M122.183,168.433h-2.993v10.973h2.993V168.433z M134.153,168.433h-2.992v10.973h2.992V168.433z"/>
	</g>
	<g>
		<path style="fill:none;stroke:#263238;stroke-linecap:round;stroke-linejoin:round;stroke-miterlimit:10;" d="M108.716,283.85
			c-14.633,0-26.495,11.862-26.495,26.495c0,14.633,11.862,26.495,26.495,26.495c14.633,0,26.495-11.862,26.495-26.495
			C135.211,295.712,123.349,283.85,108.716,283.85z M108.716,327.107c-9.257,0-16.762-7.505-16.762-16.762
			c0-9.258,7.505-16.762,16.762-16.762s16.762,7.505,16.762,16.762C125.479,319.603,117.974,327.107,108.716,327.107z"/>
		<path style="fill:none;stroke:#263238;stroke-linecap:round;stroke-linejoin:round;stroke-miterlimit:10;" d="M109.257,283.864
			v9.746c9.005,0.288,16.221,7.66,16.221,16.735c0,4.589-1.848,8.744-4.835,11.771l7.644,6.087c4.3-4.71,6.924-10.977,6.924-17.858
			C135.211,295.894,123.639,284.153,109.257,283.864z"/>
		
			<line style="fill:none;stroke:#263238;stroke-linecap:round;stroke-linejoin:round;stroke-miterlimit:10;" x1="98.983" y1="309.264" x2="117.909" y2="309.264"/>
		
			<line style="fill:none;stroke:#263238;stroke-linecap:round;stroke-linejoin:round;stroke-miterlimit:10;" x1="98.983" y1="314.13" x2="117.909" y2="314.13"/>
	</g>
	<g>
		
			<line style="fill:none;stroke:#263238;stroke-linecap:round;stroke-linejoin:round;stroke-miterlimit:10;" x1="349.069" y1="191.409" x2="400.617" y2="191.409"/>
		
			<line style="fill:none;stroke:#263238;stroke-linecap:round;stroke-linejoin:round;stroke-miterlimit:10;" x1="328.525" y1="191.409" x2="333.833" y2="191.409"/>
		
			<line style="fill:none;stroke:#263238;stroke-linecap:round;stroke-linejoin:round;stroke-miterlimit:10;" x1="366.235" y1="199.587" x2="400.617" y2="199.587"/>
		
			<line style="fill:none;stroke:#263238;stroke-linecap:round;stroke-linejoin:round;stroke-miterlimit:10;" x1="328.525" y1="199.587" x2="334.252" y2="199.587"/>
		
			<line style="fill:none;stroke:#263238;stroke-linecap:round;stroke-linejoin:round;stroke-miterlimit:10;" x1="382.773" y1="207.766" x2="400.617" y2="207.766"/>
		
			<line style="fill:none;stroke:#263238;stroke-linecap:round;stroke-linejoin:round;stroke-miterlimit:10;" x1="328.525" y1="207.766" x2="333.833" y2="207.766"/>
		
			<line style="fill:none;stroke:#263238;stroke-linecap:round;stroke-linejoin:round;stroke-miterlimit:10;" x1="397.427" y1="215.945" x2="400.617" y2="215.945"/>
		
			<line style="fill:none;stroke:#263238;stroke-linecap:round;stroke-linejoin:round;stroke-miterlimit:10;" x1="328.525" y1="215.945" x2="333.833" y2="215.945"/>
		
			<line style="fill:none;stroke:#263238;stroke-linecap:round;stroke-linejoin:round;stroke-miterlimit:10;" x1="397.427" y1="225.462" x2="400.617" y2="225.462"/>
		
			<line style="fill:none;stroke:#263238;stroke-linecap:round;stroke-linejoin:round;stroke-miterlimit:10;" x1="328.525" y1="225.462" x2="333.833" y2="225.462"/>
		
			<line style="fill:none;stroke:#263238;stroke-linecap:round;stroke-linejoin:round;stroke-miterlimit:10;" x1="397.427" y1="234.98" x2="400.617" y2="234.98"/>
		
			<line style="fill:none;stroke:#263238;stroke-linecap:round;stroke-linejoin:round;stroke-miterlimit:10;" x1="328.525" y1="234.98" x2="333.833" y2="234.98"/>
		
			<rect x="335.188" y="185.747" style="fill:none;stroke:#263238;stroke-linecap:round;stroke-linejoin:round;stroke-miterlimit:10;" width="11.953" height="50.104"/>
		
			<rect x="351.545" y="195.184" style="fill:none;stroke:#263238;stroke-linecap:round;stroke-linejoin:round;stroke-miterlimit:10;" width="11.953" height="40.668"/>
		
			<rect x="367.902" y="203.991" style="fill:none;stroke:#263238;stroke-linecap:round;stroke-linejoin:round;stroke-miterlimit:10;" width="11.953" height="31.86"/>
		
			<rect x="384.259" y="215.316" style="fill:none;stroke:#263238;stroke-linecap:round;stroke-linejoin:round;stroke-miterlimit:10;" width="11.954" height="20.535"/>
	</g>
	<g>
		<path style="fill:none;stroke:#263238;stroke-linecap:round;stroke-linejoin:round;stroke-miterlimit:10;" d="M126.259,73.372
			c-4.895-3.653-10.966-5.815-17.543-5.815c-16.215,0-29.36,13.145-29.36,29.36c0,16.215,13.145,29.36,29.36,29.36
			c16.215,0,29.36-13.145,29.36-29.36c0-7.731-2.988-14.763-7.871-20.007"/>
		<path style="fill:none;stroke:#263238;stroke-linecap:round;stroke-linejoin:round;stroke-miterlimit:10;" d="M94.885,110.368
			c3.505,3.603,8.407,5.842,13.831,5.842c10.656,0,19.294-8.638,19.294-19.294s-8.638-19.294-19.294-19.294
			s-19.294,8.638-19.294,19.294c0,3.924,1.171,7.574,3.183,10.619"/>
		
			<circle style="fill:none;stroke:#263238;stroke-linecap:round;stroke-linejoin:round;stroke-miterlimit:10;" cx="108.716" cy="96.916" r="10.066"/>
	</g>
	<g>
		<g>
			<path style="fill:#263238;" d="M364.887,297.183c3.232,0.456,4.716,2.967,4.716,6.542v0.723h-2.776v-0.913
				c0-2.359-0.951-3.804-3.081-3.804c-2.091,0-3.042,1.445-3.042,3.804c0,5.971,8.938,6.009,8.938,13.501
				c0,3.576-1.522,6.124-4.754,6.58v2.016h-2.434v-2.016c-3.309-0.456-4.793-2.967-4.793-6.58v-1.635h2.777v1.826
				c0,2.396,0.989,3.765,3.118,3.765c2.168,0,3.119-1.369,3.119-3.765c0-5.934-8.899-6.01-8.899-13.502
				c0-3.651,1.483-6.047,4.678-6.542v-2.13h2.434V297.183z"/>
		</g>
		<path style="fill:none;stroke:#263238;stroke-linecap:round;stroke-linejoin:round;stroke-miterlimit:10;" d="M373.381,332.863
			c1.884-0.815,3.645-1.859,5.249-3.098"/>
		<path style="fill:none;stroke:#263238;stroke-linecap:round;stroke-linejoin:round;stroke-miterlimit:10;" d="M354.975,287.395
			c-9.264,3.504-15.851,12.457-15.851,22.948c0,13.546,10.981,24.526,24.526,24.526c1.702,0,3.364-0.173,4.969-0.504"/>
		<path style="fill:none;stroke:#263238;stroke-linecap:round;stroke-linejoin:round;stroke-miterlimit:10;" d="M381.717,326.93
			c4.011-4.366,6.46-10.191,6.46-16.587c0-13.546-10.981-24.526-24.526-24.526c-2.077,0-4.094,0.258-6.02,0.744"/>
		
			<ellipse transform="matrix(0.7336 -0.6796 0.6796 0.7336 -114.0275 329.7899)" style="fill:none;stroke:#263238;stroke-linecap:round;stroke-linejoin:round;stroke-miterlimit:10;" cx="363.65" cy="310.343" rx="20.109" ry="20.109"/>
	</g>
</g>
<g id="Character">
	<g>
		<path style="fill:#263238;stroke:#263238;stroke-linecap:round;stroke-linejoin:round;stroke-miterlimit:10;" d="M265.386,229.816
			c0,0,0.245-0.028,0.688-0.082c2.898-0.358,14.264-1.881,20.772-4.454c7.502-2.966,24.6-1.396,24.6-1.396l7.502,5.409l-8.549,5.583
			c0,0-12.038-4.013-20.412-3.664c-8.374,0.349-12.387,2.791-17.621,2.442c-5.234-0.349-11.689-3.838-11.689-3.838H265.386z"/>
		<polygon style="fill:#FFFFFF;stroke:#263238;stroke-linecap:round;stroke-linejoin:round;stroke-miterlimit:10;" points="
			233.329,212.84 233.329,224.067 251.829,224.067 251.829,211.067 		"/>
		<path style="fill:#FFFFFF;stroke:#263238;stroke-linecap:round;stroke-linejoin:round;stroke-miterlimit:10;" d="M228.276,201.943
			c0,0-4.383-2.922-2.922,2.192c1.461,5.114,2.922,7.062,5.113,6.818c2.192-0.243,3.409-0.974,2.679-2.922
			C232.416,206.083,228.276,201.943,228.276,201.943z"/>
		<path style="fill:#FFFFFF;stroke:#263238;stroke-linecap:round;stroke-linejoin:round;stroke-miterlimit:10;" d="M257.552,201.943
			c0,0,4.383-2.922,2.922,2.192c-1.461,5.114-2.922,7.062-5.114,6.818c-2.192-0.243-3.409-0.974-2.679-2.922
			C253.413,206.083,257.552,201.943,257.552,201.943z"/>
		<path style="fill:#263238;stroke:#263238;stroke-linecap:round;stroke-linejoin:round;stroke-miterlimit:10;" d="M237.773,178.567
			c0,0-7.305,2.435-9.74,9.253c-2.435,6.818-0.243,15.097,0.974,18.506c1.217,3.409,7.062,9.984,7.062,9.984h13.149
			c0,0,4.87-4.627,7.549-10.714c2.679-6.088,2.679-14.61,2.679-14.61s2.192,0.73,2.192-2.192c0-2.922-6.818-8.523-6.818-8.523
			s3.166-1.217,0.974-2.922c-2.192-1.705-9.984-0.974-9.984-0.974S244.834,171.262,237.773,178.567z"/>
		<path style="fill:#858585;stroke:#263238;stroke-linecap:round;stroke-linejoin:round;stroke-miterlimit:10;" d="M266.579,458.318
			l2,1.25c0,0,2.25,0,3.5,1.25s0.785,7.461,0.785,7.461s-0.997,0.737-5.747,0.737s-15.211,1.161-16.211-0.589
			s0.173-9.108,0.173-9.108L266.579,458.318z"/>
		<g>
			<path style="fill:#263238;stroke:#263238;stroke-linecap:round;stroke-linejoin:round;stroke-miterlimit:10;" d="
				M211.829,301.067c0,0-1.5,11-1.5,13.25s-0.5,21.75-0.5,21.75s0.25,51.25,0.25,52.25s-4.25,15-2.75,24.5s4.5,46,4.5,46
				s-1,8-0.25,8.75s10,1.75,12,0.75s0.75-10.75,0.75-10.75s1.25-4.25,1.25-7.25s0-5.5,0-8s1.25-24.75,2.5-33.5s2-20.5,2-20.5
				l5.25-54l4-0.25c0,0,5,58,5.25,62.25s-0.75,12.75,1.5,22.5s3.5,36.25,3.5,36.25s-0.5,2.5,0,3.5s1.75,4,1.75,4s2,0.25,5.251,0
				c2.739-0.211,4.392-0.493,8.041-2.19c1.782-1.644,2.566-3.895,1.62-6.206c-1.497-3.659-2.162-4.354-2.162-4.354
				s2.25-31.5,2.25-39.25s-1.25-17.25-1.25-18s1.5-57,1.5-62.75s-0.5-21.25-3-28s-42.5-5-46.5-4.75S211.829,301.067,211.829,301.067
				z"/>
			
				<line style="fill:none;stroke:#757575;stroke-linecap:round;stroke-linejoin:round;stroke-miterlimit:10;" x1="226.579" y1="333.939" x2="248.079" y2="332.939"/>
		</g>
		<path style="fill:#FFFFFF;stroke:#263238;stroke-linecap:round;stroke-linejoin:round;stroke-miterlimit:10;" d="M239.079,223.567
			l-13.5,3.25c0,0-19.5,9.5-23.75,12s-21,36.25-20.25,38s4,4,7.25,4.5s19.75-18.25,19.75-18.25s4.75,23.5,4.75,24.5s-2.75,13-1.5,15
			s49.25,0,49.25,0s3.5,0.25,4-3s-1-12.75-1-12.75l5.5-28.75c0,0,10.506,15.935,12.861,18.5c4.094,4.458,9.175,2.59,11.889-0.75
			c2.364-2.911,0.25-8.5-0.5-10.25s-14-31.5-18-32.75s-20.75-7.25-20.75-7.25L239.079,223.567z"/>
		<path style="fill:#FFFFFF;stroke:#263238;stroke-linecap:round;stroke-linejoin:round;stroke-miterlimit:10;" d="M225.579,226.817
			c0,0,16.523-0.341,19.273-0.341s12.789-0.086,12.789-0.086l-2.539-5.414c0,0-5.25-1.5-13.25-1.5s-14,2.5-14,2.5L225.579,226.817z"
			/>
		<polyline style="fill:none;stroke:#263238;stroke-linecap:round;stroke-linejoin:round;stroke-miterlimit:10;" points="
			203.495,249.885 208.579,263.067 199.829,254.317 		"/>
		
			<line style="fill:none;stroke:#263238;stroke-linecap:round;stroke-linejoin:round;stroke-miterlimit:10;" x1="201.829" y1="245.567" x2="202.436" y2="247.141"/>
		<path style="fill:none;stroke:#263238;stroke-linecap:round;stroke-linejoin:round;stroke-miterlimit:10;" d="M229.964,285.388
			c-0.865,0.72-1.744,1.367-2.635,1.93"/>
		<path style="fill:none;stroke:#263238;stroke-linecap:round;stroke-linejoin:round;stroke-miterlimit:10;" d="M252.829,247.567
			c0,0-9.142,24.987-21.382,36.505"/>
		<polyline style="fill:none;stroke:#263238;stroke-linecap:round;stroke-linejoin:round;stroke-miterlimit:10;" points="
			275.329,243.817 269.579,258.067 278.829,248.067 		"/>
		<path style="fill:#FFFFFF;stroke:#263238;stroke-linecap:round;stroke-linejoin:round;stroke-miterlimit:10;" d="M179.329,283.067
			c0,0,1.75,5.75,7.25,10s20.25,18.25,20.25,18.25s-0.25,1,0,2.25s4.25,4.5,4.25,4.5v-2.5l1-2l1-2.5c0,0,2.5-1,3.25-1.5
			s1.25-1.25,1.25-1.25s2.75,0.5,4.5,0.5s4.25-1.75,2.75-2.25s-3,0-5-1s-3-2-5-2s-5.25,0-5.25,0l-13.75-22.5L179.329,283.067z"/>
		<path style="fill:#FFFFFF;stroke:#263238;stroke-linecap:round;stroke-linejoin:round;stroke-miterlimit:10;" d="M185.246,267.701
			c0,0-2.916,0.867-3.666,1.617s-4.5,6.5-3.75,9.5s1.75,7.25,8.25,8.5s10-1.5,10.5-2.25s1.732-9.595,0.732-9.595
			s-3.732,3.345-3.732,3.345s-7.447-1.686-8.947-2.936S185.246,267.701,185.246,267.701z"/>
		<path style="fill:#FFFFFF;stroke:#263238;stroke-linecap:round;stroke-linejoin:round;stroke-miterlimit:10;" d="M299.941,283.067
			c0,0-1.75,5.75-7.25,10s-20.25,18.25-20.25,18.25s0.25,1,0,2.25s-5.757,5.096-5.757,5.096v-3.644l-0.384-2.301l-0.109-1.65
			c0,0-2.5-1-3.25-1.5s-1.25-1.25-1.25-1.25s-2.75,0.5-4.5,0.5s-4.25-1.75-2.75-2.25s3,0,5-1s3-2,5-2s5.25,0,5.25,0l13.75-22.5
			L299.941,283.067z"/>
		<path style="fill:#FFFFFF;stroke:#263238;stroke-linecap:round;stroke-linejoin:round;stroke-miterlimit:10;" d="M295.066,268.928
			c0,0,1.875-0.36,2.625,0.39s4.5,6.5,3.75,9.5s-1.75,7.25-8.25,8.5s-10-1.5-10.5-2.25s-0.904-9.257-0.25-8.5
			c1.173,1.359,3.25,2.25,3.25,2.25s7.751-0.395,8.966-4.777C295.179,272.159,295.066,268.928,295.066,268.928z"/>
		<path style="fill:#858585;stroke:#263238;stroke-linecap:round;stroke-linejoin:round;stroke-miterlimit:10;" d="M223.579,468.318
			c1.579-0.789,1.133-7.028,0.874-9.622c-1.289,0.604-3.263,1.344-5.624,1.622c-4.25,0.5-7-1.5-7-1.5s-0.803,8.646-0.124,9.461
			C212.443,469.163,221.579,469.318,223.579,468.318z"/>
	</g>
</g>
<g id="Plants">
	<g>
		<g>
			<g>
				<g>
					<path style="fill:#263238;" d="M400.988,469.329c-0.22,0-0.397-0.178-0.397-0.397v-51.583c0-0.219,0.177-0.397,0.397-0.397
						c0.219,0,0.397,0.178,0.397,0.397v51.583C401.385,469.151,401.207,469.329,400.988,469.329z"/>
				</g>
				<g>
					<path style="fill:#263238;" d="M400.6,464.278c0,0-2.715-3.878-6.206-5.818c-3.49-1.939-9.308-1.939-9.308-1.939
						S388.189,467.768,400.6,464.278z"/>
				</g>
				<g>
					<path style="fill:#263238;" d="M400.988,464.278c0,0,2.715-3.878,6.206-5.818c3.491-1.939,9.308-1.939,9.308-1.939
						S413.399,467.768,400.988,464.278z"/>
				</g>
				<g>
					<path style="fill:#263238;" d="M400.6,450.315c0,0-2.715-3.878-6.206-5.818c-3.49-1.939-9.308-1.939-9.308-1.939
						S388.189,453.806,400.6,450.315z"/>
				</g>
				<g>
					<path style="fill:#263238;" d="M400.988,450.315c0,0,2.715-3.878,6.206-5.818c3.491-1.939,9.308-1.939,9.308-1.939
						S413.399,453.806,400.988,450.315z"/>
				</g>
				<g>
					<path style="fill:#263238;" d="M400.6,436.353c0,0-2.715-3.878-6.206-5.818c-3.49-1.939-9.308-1.939-9.308-1.939
						S388.189,439.844,400.6,436.353z"/>
				</g>
				<g>
					<path style="fill:#263238;" d="M400.988,436.353c0,0,2.715-3.878,6.206-5.818c3.491-1.939,9.308-1.939,9.308-1.939
						S413.399,439.844,400.988,436.353z"/>
				</g>
				<g>
					<path style="fill:#263238;" d="M400.6,422.391c0,0-2.715-3.878-6.206-5.818c-3.49-1.939-9.308-1.939-9.308-1.939
						S388.189,425.881,400.6,422.391z"/>
				</g>
				<g>
					<path style="fill:#263238;" d="M400.988,422.391c0,0,2.715-3.878,6.206-5.818c3.491-1.939,9.308-1.939,9.308-1.939
						S413.399,425.881,400.988,422.391z"/>
				</g>
				<g>
					<path style="fill:#263238;" d="M400.988,417.349c0,0-3.104-4.176-3.261-8.166c-0.156-3.99,2.467-9.182,2.467-9.182
						S409.701,407.846,400.988,417.349z"/>
				</g>
			</g>
		</g>
	</g>
	<g>
		<g>
			<g>
				<g>
					<path style="fill:#263238;" d="M59.189,469.329c-0.237,0-0.429-0.192-0.429-0.429v-55.759c0-0.237,0.192-0.429,0.429-0.429
						s0.429,0.192,0.429,0.429V468.9C59.618,469.137,59.426,469.329,59.189,469.329z"/>
				</g>
				<g>
					<path style="fill:#263238;" d="M58.77,463.869c0,0-2.935-4.193-6.708-6.289C48.289,455.484,42,455.484,42,455.484
						S45.354,467.642,58.77,463.869z"/>
				</g>
				<g>
					<path style="fill:#263238;" d="M59.189,463.869c0,0,2.935-4.193,6.708-6.289c3.773-2.096,10.062-2.096,10.062-2.096
						S72.605,467.642,59.189,463.869z"/>
				</g>
				<g>
					<path style="fill:#263238;" d="M58.77,448.776c0,0-2.935-4.192-6.708-6.289C48.289,440.391,42,440.391,42,440.391
						S45.354,452.549,58.77,448.776z"/>
				</g>
				<g>
					<path style="fill:#263238;" d="M59.189,448.776c0,0,2.935-4.192,6.708-6.289c3.773-2.096,10.062-2.096,10.062-2.096
						S72.605,452.549,59.189,448.776z"/>
				</g>
				<g>
					<path style="fill:#263238;" d="M58.77,433.683c0,0-2.935-4.192-6.708-6.289C48.289,425.298,42,425.298,42,425.298
						S45.354,437.457,58.77,433.683z"/>
				</g>
				<g>
					<path style="fill:#263238;" d="M59.189,433.683c0,0,2.935-4.192,6.708-6.289c3.773-2.096,10.062-2.096,10.062-2.096
						S72.605,437.457,59.189,433.683z"/>
				</g>
				<g>
					<path style="fill:#263238;" d="M58.77,418.591c0,0-2.935-4.192-6.708-6.289C48.289,410.206,42,410.206,42,410.206
						S45.354,422.364,58.77,418.591z"/>
				</g>
				<g>
					<path style="fill:#263238;" d="M59.189,418.591c0,0,2.935-4.192,6.708-6.289c3.773-2.096,10.062-2.096,10.062-2.096
						S72.605,422.364,59.189,418.591z"/>
				</g>
				<g>
					<path style="fill:#263238;" d="M59.189,413.141c0,0-3.355-4.514-3.525-8.827c-0.169-4.313,2.667-9.926,2.667-9.926
						S68.607,402.868,59.189,413.141z"/>
				</g>
			</g>
		</g>
	</g>
	<g>
		<g>
			<g>
				<g>
					<path style="fill:#263238;" d="M95.219,469.083V443.72c0-0.237-0.192-0.429-0.429-0.429c-0.237,0-0.429,0.192-0.429,0.429
						v25.364H95.219z"/>
				</g>
				<g>
					<path style="fill:#263238;" d="M94.371,464.262c0,0-2.935-4.192-6.708-6.289c-3.773-2.096-10.062-2.096-10.062-2.096
						S80.955,468.035,94.371,464.262z"/>
				</g>
				<g>
					<path style="fill:#263238;" d="M94.79,464.262c0,0,2.935-4.192,6.708-6.289c3.773-2.096,10.062-2.096,10.062-2.096
						S108.206,468.035,94.79,464.262z"/>
				</g>
				<g>
					<path style="fill:#263238;" d="M94.371,449.17c0,0-2.935-4.192-6.708-6.289c-3.773-2.096-10.062-2.096-10.062-2.096
						S80.955,452.943,94.371,449.17z"/>
				</g>
				<g>
					<path style="fill:#263238;" d="M94.79,449.17c0,0,2.935-4.192,6.708-6.289c3.773-2.096,10.062-2.096,10.062-2.096
						S108.206,452.943,94.79,449.17z"/>
				</g>
				<g>
					<path style="fill:#263238;" d="M94.79,443.72c0,0-3.355-4.514-3.525-8.827c-0.169-4.313,2.667-9.926,2.667-9.926
						S104.208,433.447,94.79,443.72z"/>
				</g>
			</g>
		</g>
	</g>
	<g>
		<g>
			<g>
				<g>
					<path style="fill:#263238;" d="M366.927,469.102v-23.464c0-0.219-0.178-0.397-0.397-0.397s-0.397,0.178-0.397,0.397v23.464
						H366.927z"/>
				</g>
				<g>
					<path style="fill:#263238;" d="M366.142,464.642c0,0-2.715-3.878-6.206-5.818c-3.491-1.939-9.308-1.939-9.308-1.939
						S353.731,468.132,366.142,464.642z"/>
				</g>
				<g>
					<path style="fill:#263238;" d="M366.53,464.642c0,0,2.715-3.878,6.206-5.818c3.49-1.939,9.308-1.939,9.308-1.939
						S378.941,468.132,366.53,464.642z"/>
				</g>
				<g>
					<path style="fill:#263238;" d="M366.142,450.679c0,0-2.715-3.878-6.206-5.818c-3.491-1.939-9.308-1.939-9.308-1.939
						S353.731,454.17,366.142,450.679z"/>
				</g>
				<g>
					<path style="fill:#263238;" d="M366.53,450.679c0,0,2.715-3.878,6.206-5.818c3.49-1.939,9.308-1.939,9.308-1.939
						S378.941,454.17,366.53,450.679z"/>
				</g>
				<g>
					<path style="fill:#263238;" d="M366.53,445.637c0,0-3.104-4.176-3.261-8.166c-0.156-3.99,2.468-9.182,2.468-9.182
						S375.243,436.135,366.53,445.637z"/>
				</g>
			</g>
		</g>
	</g>
	<g>
		<g>
			<g>
				<g>
					<path style="fill:#263238;" d="M434.468,469.102v-23.464c0-0.219-0.177-0.397-0.397-0.397c-0.219,0-0.397,0.178-0.397,0.397
						v23.464H434.468z"/>
				</g>
				<g>
					<path style="fill:#263238;" d="M433.684,464.642c0,0-2.715-3.878-6.206-5.818c-3.491-1.939-9.308-1.939-9.308-1.939
						S421.272,468.132,433.684,464.642z"/>
				</g>
				<g>
					<path style="fill:#263238;" d="M434.071,464.642c0,0,2.715-3.878,6.206-5.818c3.49-1.939,9.308-1.939,9.308-1.939
						S446.482,468.132,434.071,464.642z"/>
				</g>
				<g>
					<path style="fill:#263238;" d="M433.684,450.679c0,0-2.715-3.878-6.206-5.818c-3.491-1.939-9.308-1.939-9.308-1.939
						S421.272,454.17,433.684,450.679z"/>
				</g>
				<g>
					<path style="fill:#263238;" d="M434.071,450.679c0,0,2.715-3.878,6.206-5.818c3.49-1.939,9.308-1.939,9.308-1.939
						S446.482,454.17,434.071,450.679z"/>
				</g>
				<g>
					<path style="fill:#263238;" d="M434.071,445.637c0,0-3.104-4.176-3.261-8.166c-0.156-3.99,2.467-9.182,2.467-9.182
						S442.784,436.135,434.071,445.637z"/>
				</g>
			</g>
		</g>
	</g>
</g>
<g id="Floor">
	<g>
		
			<line style="fill:none;stroke:#263238;stroke-linecap:round;stroke-linejoin:round;stroke-miterlimit:10;" x1="475.24" y1="469" x2="482" y2="469"/>
		
			<line style="fill:none;stroke:#263238;stroke-linecap:round;stroke-linejoin:round;stroke-miterlimit:10;" x1="117.888" y1="469" x2="466.013" y2="469"/>
		
			<line style="fill:none;stroke:#263238;stroke-linecap:round;stroke-linejoin:round;stroke-miterlimit:10;" x1="40" y1="469" x2="108.66" y2="469"/>
	</g>
</g>
</svg>
