<svg id="objects" xmlns="http://www.w3.org/2000/svg" viewBox="0 0 1746.32 522.04"><defs><style>.cls-1{fill:#324c8e;}.cls-2{fill:#003f3d;}.cls-3{fill:teal;}.cls-4{fill:#00605d;}</style></defs><line class="cls-1" x1="1652.85" y1="143.14" x2="1652.64" y2="143.25"/><polygon class="cls-2" points="1589.06 179.46 1542.11 202.89 1542.92 193.41 1575.7 158.8 1589.06 179.46"/><line class="cls-1" x1="1652.83" y1="143.54" x2="1652.64" y2="143.25"/><path class="cls-3" d="M1665.87,687.51l107.41,99.92a9.56,9.56,0,0,0,15.54-3.84l77.63-221.85a9.56,9.56,0,0,0-11.48-12.4l-245.86,65.34a9.56,9.56,0,0,0-4.06,16.24l60.82,56.59" transform="translate(-120.67 -549.01)"/><path class="cls-4" d="M1833.5,580.81,1696.1,715.6l-32.63,35.75a3.62,3.62,0,0,1-6.15-3.09l9.16-60.22Z" transform="translate(-120.67 -549.01)"/><path class="cls-3" d="M123.67,1071.05a2.89,2.89,0,0,1-1.07-.2,3,3,0,0,1-1.73-3.87c1.11-2.88,2.25-5.79,3.4-8.63a3,3,0,0,1,5.56,2.25c-1.13,2.81-2.26,5.68-3.35,8.53A3,3,0,0,1,123.67,1071.05Zm661.65-2.29h-.19c-4.11-.26-8.29-.68-12.43-1.26a3,3,0,0,1,.84-5.94c4,.56,8,1,12,1.21a3,3,0,0,1-.18,6Zm30.58-1.21a3,3,0,0,1-.42-6c3.92-.55,7.91-1.26,11.84-2.13a3,3,0,0,1,1.28,5.87c-4.08.89-8.21,1.63-12.28,2.21A3,3,0,0,1,815.9,1067.55Zm-72.58-7a3,3,0,0,1-.93-.15c-3.88-1.27-7.82-2.69-11.7-4.24a3,3,0,0,1,2.21-5.57c3.77,1.49,7.59,2.88,11.35,4.11a3,3,0,0,1-.93,5.85Zm113.84-4.35a3,3,0,0,1-1.14-5.78c3.67-1.51,7.38-3.18,11-5a3,3,0,1,1,2.63,5.39c-3.74,1.83-7.56,3.55-11.35,5.11A3.14,3.14,0,0,1,857.16,1056.19Zm-153-13a3,3,0,0,1-1.46-.39c-3.55-2-7.14-4.1-10.68-6.29a3,3,0,1,1,3.16-5.1c3.47,2.14,7,4.22,10.45,6.16a3,3,0,0,1-1.47,5.62Zm339.5-5.24a3,3,0,0,1,0-6c4,0,8.08-.1,12.14-.28a3,3,0,0,1,.26,6c-4.14.18-8.31.27-12.39.28Zm-30.59-1.65a2,2,0,0,1-.34,0c-2.43-.27-4.9-.58-7.33-.92-1.66-.23-3.32-.48-5-.75a3,3,0,1,1,1-5.92c1.61.26,3.23.5,4.84.73,2.38.33,4.79.64,7.16.9a3,3,0,0,1-.32,6Zm-118.27-.53a3,3,0,0,1-1.69-5.48c3.29-2.25,6.59-4.64,9.81-7.09a3,3,0,1,1,3.64,4.76c-3.3,2.52-6.69,5-10.07,7.28A2.91,2.91,0,0,1,894.8,1035.72Zm191.63-.87a3,3,0,0,1-.4-6c4-.54,8-1.16,12-1.84a3,3,0,0,1,1,5.91c-4.1.7-8.21,1.33-12.22,1.87A2.83,2.83,0,0,1,1086.43,1034.85Zm-947-.39a3.06,3.06,0,0,1-1.31-.3,3,3,0,0,1-1.39-4c1.79-3.7,3.64-7.42,5.52-11a3,3,0,1,1,5.32,2.76c-1.84,3.56-3.67,7.22-5.44,10.88A3,3,0,0,1,139.45,1034.46ZM971,1027.79a2.83,2.83,0,0,1-.85-.13c-3.94-1.16-7.91-2.44-11.81-3.81a3,3,0,1,1,2-5.66c3.8,1.33,7.68,2.58,11.52,3.72a3,3,0,0,1-.85,5.88Zm157.52-1a3,3,0,0,1-.71-5.91c3.85-.94,7.82-2,11.8-3a3,3,0,1,1,1.57,5.79c-4,1.09-8,2.12-11.94,3.08A2.94,2.94,0,0,1,1128.56,1026.74Zm-460.19-7.23a3,3,0,0,1-1.81-.61c-3.21-2.44-6.48-5-9.73-7.63a3,3,0,0,1,3.77-4.66c3.2,2.58,6.42,5.11,9.58,7.51a3,3,0,0,1-1.81,5.39Zm501.43-4.64a3,3,0,0,1-.93-5.85c3.76-1.23,7.65-2.55,11.57-3.9a3,3,0,1,1,2,5.67c-4,1.37-7.88,2.69-11.67,3.93A3.08,3.08,0,0,1,1169.8,1014.87Zm-238.66-2.75a3,3,0,0,1-1.33-.31c-3.7-1.83-7.39-3.77-11-5.78a3,3,0,1,1,2.93-5.24q2.07,1.15,4.18,2.28c2.79-2.76,5.55-5.63,8.21-8.52a3,3,0,0,1,4.42,4.05c-2.28,2.49-4.64,5-7,7.36l.94.47a3,3,0,0,1-1.33,5.69Zm279.06-11.73a3,3,0,0,1-1.08-5.8q5.72-2.21,11.39-4.46a3,3,0,1,1,2.22,5.57q-5.7,2.26-11.45,4.49A3.13,3.13,0,0,1,1210.2,1000.39ZM160,996.84a3,3,0,0,1-1.58-.45,3,3,0,0,1-1-4.13c2.18-3.51,4.43-7,6.68-10.39a3,3,0,1,1,5,3.32c-2.22,3.33-4.43,6.77-6.58,10.23A3,3,0,0,1,160,996.84Zm475.51-5a3,3,0,0,1-2-.79c-2.88-2.63-5.84-5.37-9-8.36a3,3,0,0,1,4.11-4.38c3.17,3,6.1,5.7,9,8.31a3,3,0,0,1-2,5.22Zm258.94-2a3,3,0,0,1-1.77-.58c-3.33-2.43-6.64-5-9.84-7.56a3,3,0,1,1,3.77-4.67c3.12,2.53,6.35,5,9.6,7.38a3,3,0,0,1-1.76,5.43ZM1250,984.3a3,3,0,0,1-1.16-5.77c3.77-1.57,7.52-3.16,11.28-4.76a3,3,0,1,1,2.35,5.52q-5.64,2.4-11.31,4.78A3,3,0,0,1,1250,984.3Zm-294.3-8.47a3,3,0,0,1-1.76-.57,3,3,0,0,1-.67-4.19c2.35-3.24,4.66-6.6,6.88-10a3,3,0,0,1,5,3.29c-2.27,3.46-4.64,6.89-7,10.21A3,3,0,0,1,955.69,975.83Zm333.7-8.54a3,3,0,0,1-1.22-5.74q5.6-2.49,11.17-5a3,3,0,0,1,2.48,5.47q-5.6,2.52-11.21,5A2.91,2.91,0,0,1,1289.39,967.29Zm-685-4.94a3,3,0,0,1-2.08-.84l-8.83-8.5a3,3,0,1,1,4.15-4.33c3,2.83,5.9,5.67,8.85,8.51a3,3,0,0,1-2.09,5.16Zm-419.66-.55a3,3,0,0,1-1.87-.66,3,3,0,0,1-.46-4.21c2.58-3.22,5.24-6.41,7.92-9.5a3,3,0,1,1,4.53,3.93c-2.63,3-5.24,6.17-7.77,9.32A3,3,0,0,1,184.73,961.8Zm677.44-.08a3,3,0,0,1-2.17-.92c-2.86-3-5.68-6.07-8.37-9.17a3,3,0,0,1,4.54-3.93c2.62,3,5.36,6,8.16,8.94a3,3,0,0,1-.09,4.25A3,3,0,0,1,862.17,961.72Zm466.25-12.29a3,3,0,0,1-1.28-5.72q5.53-2.61,11-5.25a3,3,0,1,1,2.59,5.42q-5.54,2.64-11.09,5.26A2.9,2.9,0,0,1,1328.42,949.43ZM978,939.23a3,3,0,0,1-2.67-4.36c1.82-3.59,3.58-7.27,5.25-10.94a3,3,0,1,1,5.46,2.48c-1.7,3.75-3.5,7.51-5.36,11.17A3,3,0,0,1,978,939.23ZM573.18,932.9a3,3,0,0,1-2-.78c-3.11-2.82-6.18-5.54-9.12-8.1a3,3,0,1,1,3.93-4.53c3,2.59,6.08,5.34,9.22,8.18a3,3,0,0,1-2,5.23ZM1367,930.72a3,3,0,0,1-1.34-5.69q5.47-2.71,10.94-5.48a3,3,0,1,1,2.71,5.35q-5.47,2.77-11,5.51A3,3,0,0,1,1367,930.72Zm-1153.25-.43a3,3,0,0,1-2.06-5.19c3-2.83,6.11-5.62,9.2-8.29a3,3,0,0,1,3.92,4.54c-3,2.61-6.06,5.35-9,8.12A3,3,0,0,1,213.79,930.29Zm621.65-2.07a3,3,0,0,1-2.52-1.36c-2.27-3.46-4.46-7-6.51-10.58a3,3,0,0,1,5.2-3c2,3.46,4.13,6.93,6.33,10.3a3,3,0,0,1-2.5,4.64Zm569.81-17a3,3,0,0,1-1.4-5.66q5.42-2.85,10.82-5.72a3,3,0,1,1,2.82,5.29q-5.41,2.89-10.85,5.74A2.93,2.93,0,0,1,1405.25,911.18Zm-865-5.74a3,3,0,0,1-1.8-.6c-3.29-2.47-6.6-4.86-9.84-7.11A3,3,0,1,1,532,892.8c3.3,2.29,6.67,4.73,10,7.24a3,3,0,0,1-1.8,5.4Zm-293.07-2.07a3,3,0,0,1-1.69-5.47c3.4-2.33,6.9-4.61,10.38-6.77a3,3,0,0,1,3.16,5.1c-3.41,2.11-6.82,4.34-10.15,6.62A3,3,0,0,1,247.14,903.37Zm747.3-3.74a2.76,2.76,0,0,1-.93-.16,3,3,0,0,1-1.92-3.78c1.26-3.82,2.45-7.73,3.54-11.61a3,3,0,0,1,5.78,1.63c-1.12,4-2.33,7.95-3.62,11.85A3,3,0,0,1,994.44,899.63ZM1443,890.81a3,3,0,0,1-1.45-5.63q5.36-3,10.69-6a3,3,0,0,1,2.94,5.23q-5.35,3-10.73,6A2.94,2.94,0,0,1,1443,890.81Zm-627.38-.59a3,3,0,0,1-2.79-1.88c-1.53-3.84-3-7.77-4.29-11.67a3,3,0,0,1,5.69-1.91c1.27,3.8,2.68,7.61,4.17,11.35a3,3,0,0,1-1.67,3.9A3.08,3.08,0,0,1,815.64,890.22ZM504,882.57a3,3,0,0,1-1.32-.31c-3.56-1.76-7.26-3.46-11-5a3,3,0,0,1,2.34-5.53c3.84,1.63,7.64,3.38,11.31,5.19a3,3,0,0,1-1.34,5.69Zm-219.62-.46a3,3,0,0,1-1.27-5.72c3.73-1.74,7.55-3.41,11.36-5a3,3,0,1,1,2.27,5.55c-3.71,1.53-7.45,3.16-11.09,4.86A3,3,0,0,1,284.35,882.11Zm1196-12.49a3,3,0,0,1-1.51-5.59q5.28-3.09,10.56-6.2a3,3,0,1,1,3,5.17q-5.3,3.12-10.59,6.21A3,3,0,0,1,1480.34,869.62ZM463.9,867.38a2.82,2.82,0,0,1-.81-.11c-3.85-1.07-7.81-2.07-11.74-3a3,3,0,1,1,1.32-5.85c4,.91,8.08,1.93,12,3a3,3,0,0,1-.8,5.89Zm-139.34-.08a3,3,0,0,1-.79-5.89c4-1.09,8-2.11,12-3a3,3,0,1,1,1.32,5.85c-3.94.89-7.89,1.88-11.76,2.94A2.71,2.71,0,0,1,324.56,867.3Zm97.22-7.89-.32,0c-4-.42-8.07-.75-12.08-1a3,3,0,0,1-2.82-3.17,3,3,0,0,1,3.17-2.82c4.11.24,8.27.58,12.36,1a3,3,0,0,1-.31,6Zm-55.09,0a3,3,0,0,1-.31-6c4.1-.42,8.26-.76,12.36-1a3,3,0,1,1,.34,6c-4,.23-8.08.56-12.08,1ZM1004.75,858a2.92,2.92,0,0,1-.51,0,3,3,0,0,1-2.46-3.46c.68-4,1.27-8,1.77-12a3,3,0,0,1,6,.75c-.52,4.08-1.12,8.2-1.81,12.25A3,3,0,0,1,1004.75,858Zm-201.1-8.92a3,3,0,0,1-2.95-2.44c-.76-4-1.43-8.18-2-12.26a3,3,0,1,1,5.95-.8c.53,4,1.18,8,1.93,11.94a3,3,0,0,1-2.39,3.51A3.64,3.64,0,0,1,803.65,849.08Zm713.54-1.47a3,3,0,0,1-1.57-5.55q5.22-3.19,10.42-6.43a3,3,0,1,1,3.16,5.1q-5.21,3.24-10.45,6.44A3,3,0,0,1,1517.19,847.61Zm36.35-22.8a3,3,0,0,1-1.63-5.53q5.16-3.3,10.28-6.65a3,3,0,0,1,3.28,5q-5.15,3.35-10.31,6.67A3,3,0,0,1,1553.54,824.81Zm-544.84-9.5h-.05a3,3,0,0,1-2.95-3c0-1.58,0-3.15,0-4.73,0-2.45,0-4.94-.1-7.4a3,3,0,0,1,2.92-3.08,3,3,0,0,1,3.08,2.92c.07,2.51.1,5,.1,7.56,0,1.61,0,3.22,0,4.83A3,3,0,0,1,1008.7,815.31Zm-209.05-8.9h0a3,3,0,0,1-3-3c0-4.12.12-8.3.34-12.42a3,3,0,0,1,6,.32c-.22,4-.33,8.08-.33,12.1A3,3,0,0,1,799.65,806.41Zm789.73-5.21a3,3,0,0,1-1.68-5.48q5.07-3.42,10.13-6.88a3,3,0,1,1,3.38,4.95q-5.06,3.47-10.15,6.9A3,3,0,0,1,1589.38,801.2Zm35.31-24.39a3,3,0,0,1-1.73-5.45q5-3.52,10-7.1a3,3,0,0,1,3.49,4.88q-5,3.57-10,7.12A3,3,0,0,1,1624.69,776.81Zm-618.56-4.3a3,3,0,0,1-3-2.59c-.56-4-1.21-8-1.94-12a3,3,0,0,1,5.9-1.09c.75,4,1.41,8.15,2,12.24a3,3,0,0,1-2.56,3.38Zm-202.47-8.77a3.64,3.64,0,0,1-.56,0,3,3,0,0,1-2.39-3.51c.77-4,1.66-8.14,2.64-12.13a3,3,0,0,1,5.83,1.43c-1,3.89-1.83,7.87-2.58,11.82A3,3,0,0,1,803.66,763.74Zm193.23-33.09a3,3,0,0,1-2.86-2.12c-1.19-3.87-2.48-7.73-3.84-11.5a3,3,0,1,1,5.65-2c1.39,3.85,2.7,7.81,3.92,11.76a3,3,0,0,1-2.87,3.89ZM815.6,722.59a3.12,3.12,0,0,1-1.11-.21,3,3,0,0,1-1.67-3.9c1.53-3.84,3.18-7.68,4.92-11.41a3,3,0,1,1,5.44,2.53c-1.69,3.63-3.3,7.37-4.79,11.1A3,3,0,0,1,815.6,722.59ZM980.73,691a3,3,0,0,1-2.64-1.57c-2-3.59-4-7.08-6.13-10.35a3,3,0,0,1,5-3.26c2.2,3.4,4.35,7,6.37,10.76a3,3,0,0,1-1.22,4.06A2.91,2.91,0,0,1,980.73,691Zm-145.25-6.3A3,3,0,0,1,833,680c2.39-3.45,4.93-6.81,7.55-10a3,3,0,0,1,4.63,3.82c-2.52,3.05-5,6.27-7.25,9.58A3,3,0,0,1,835.48,684.65ZM954.81,657a3,3,0,0,1-2-.76,81.33,81.33,0,0,0-9.34-7.23,3,3,0,1,1,3.3-5,88.3,88.3,0,0,1,10,7.76,3,3,0,0,1-2,5.24ZM865,653.76a3,3,0,0,1-1.76-5.42A95.85,95.85,0,0,1,874,641.57a3,3,0,1,1,2.86,5.28,90.08,90.08,0,0,0-10,6.34A3,3,0,0,1,865,653.76Zm51.7-15-.38,0-.86-.1a60.8,60.8,0,0,0-10.79-.23,3,3,0,1,1-.41-6,66.31,66.31,0,0,1,11.87.25l1,.11a3,3,0,0,1-.38,6Z" transform="translate(-120.67 -549.01)"/></svg>